<?xml version="1.0" encoding="UTF-8" standalone="no"?>
<!-- Created with Inkscape (http://www.inkscape.org/) -->

<svg
   xmlns:dc="http://purl.org/dc/elements/1.1/"
   xmlns:cc="http://creativecommons.org/ns#"
   xmlns:rdf="http://www.w3.org/1999/02/22-rdf-syntax-ns#"
   xmlns:svg="http://www.w3.org/2000/svg"
   xmlns="http://www.w3.org/2000/svg"
   xmlns:sodipodi="http://sodipodi.sourceforge.net/DTD/sodipodi-0.dtd"
   xmlns:inkscape="http://www.inkscape.org/namespaces/inkscape"
   id="svg2"
   version="1.1"
   inkscape:version="0.48.2 r9819"
   width="1041.25"
   height="511.25"
   xml:space="preserve"
   sodipodi:docname="hiit-logo2.pdf"><metadata
     id="metadata8"><rdf:RDF><cc:Work
         rdf:about=""><dc:format>image/svg+xml</dc:format><dc:type
           rdf:resource="http://purl.org/dc/dcmitype/StillImage" /><dc:title></dc:title></cc:Work></rdf:RDF></metadata><defs
     id="defs6" /><sodipodi:namedview
     pagecolor="#ffffff"
     bordercolor="#666666"
     borderopacity="1"
     objecttolerance="10"
     gridtolerance="10"
     guidetolerance="10"
     inkscape:pageopacity="0"
     inkscape:pageshadow="2"
     inkscape:window-width="1091"
     inkscape:window-height="694"
     id="namedview4"
     showgrid="false"
     inkscape:zoom="0.64153661"
     inkscape:cx="806.16398"
     inkscape:cy="199.28008"
     inkscape:window-x="491"
     inkscape:window-y="190"
     inkscape:window-maximized="0"
     inkscape:current-layer="g10" /><g
     id="g10"
     inkscape:groupmode="layer"
     inkscape:label="hiit-logo"
     transform="matrix(1.25,0,0,-1.25,0,511.25)"><path
       inkscape:connector-curvature="0"
       id="path16"
       style="fill:#275b46;fill-opacity:1;fill-rule:evenodd;stroke:none"
       d="m 531.622,1.68906 c -5.976,0.7918 -10.728,2.23164 -14.76,6.91172 -4.824,9.07222 -4.392,16.70432 1.944,24.91212 5.832,4.1762 8.568,4.8961 15.696,5.3281 3.168,-0.3601 5.832,-1.1519 8.64,-2.8082 0,-1.1519 -0.288,-1.8 -0.936,-2.7359 -0.36,0 -0.648,0 -0.936,-0.0719 -6.336,2.5199 -11.304,2.8078 -17.28,-0.7922 -5.976,-5.3277 -6.336,-13.1039 -3.384,-20.1598 4.032,-6.048 9.144,-6.48003 15.84,-6.69605 4.392,0.7918 4.392,0.7918 5.904,1.36797 1.296,-5.18398 -7.848,-5.03984 -10.728,-5.25586" /><path
       inkscape:connector-curvature="0"
       id="path18"
       style="fill:#275b46;fill-opacity:1;fill-rule:evenodd;stroke:none"
       d="M 593.182,24.441 C 593.11,17.457 593.038,10.4008 593.038,3.34492 592.246,2.1207 590.374,2.1207 588.934,2.1207 c 0.216,9.432 0.216,9.432 0.216,33.1203 -0.648,0.936 -1.152,1.368 -1.368,2.4481 1.512,0.1437 3.024,0.2879 4.608,0.3597 0.504,-0.5039 1.08,-1.0078 1.656,-1.5121 9.432,-12.8156 9.432,-12.8156 19.512,-27.43162 0,1.72772 0,3.38402 0,5.03982 0,7.7039 0,15.4078 0,23.0399 0.576,1.2242 2.736,0.9359 3.96,0.9359 0,-11.8078 0,-23.6156 0,-35.4957 -1.224,-0.28828 -2.448,-0.86406 -3.744,-0.64805 -7.2,9.28785 -14.256,19.08005 -20.736,28.94375 0,-2.1598 0.072,-4.3199 0.144,-6.4797" /><path
       style="fill:#275b46;fill-opacity:1;fill-rule:evenodd;stroke:none"
       d="M 804.8125 462.6875 C 797.08032 462.78958 789.36719 466.725 784.9375 474.65625 C 782.5075 480.59612 782.35 486.63712 783.25 492.9375 C 783.79 494.46725 784.40125 496.00538 785.03125 497.625 C 790.43125 505.36526 794.04625 507.05518 803.40625 509.125 C 807.54625 508.94531 811.6025 508.2251 815.5625 506.875 C 826.7225 499.67529 829.5875 489.69 826.4375 477 C 822.37344 467.38982 813.57563 462.57181 804.8125 462.6875 z M 805.21875 467.0625 C 806.5698 467.08428 808.0125 467.25873 809.53125 467.5625 C 821.05125 472.15225 822.91625 484.82525 819.40625 495.625 C 815.71625 502.55523 811.39625 504.5498 803.65625 505 C 789.88625 501.12987 785.76375 488.0855 791.34375 475.125 C 795 469.5676 799.36418 466.9681 805.21875 467.0625 z "
       transform="matrix(0.8,0,0,-0.8,0,409)"
       id="path20" /><path
       style="fill:#275b46;fill-opacity:1;fill-rule:evenodd;stroke:none"
       d="M 888.1875 462.84375 C 883.15939 463.017 877.94687 464.75625 873.25 468.1875 C 859.75 483.21725 866.03375 506.69531 887.09375 509.125 C 890.96375 508.85497 894.11875 508.43116 897.71875 507.53125 C 899.42875 506.45117 901.1375 505.45849 902.9375 504.46875 C 909.5975 498.70851 911.125 491.30762 911.125 482.9375 C 909.3925 469.63463 899.24935 462.4626 888.1875 462.84375 z M 888.875 467.125 C 893.08496 467.13987 896.9375 468.95625 900.59375 472.78125 C 905.72375 480.5215 905.55625 488.45025 902.40625 497 C 897.99625 503.39015 894.47375 504.5498 887.09375 505 C 871.97375 500.5 869.5625 485.83887 876.3125 472.96875 C 878.3825 470.80863 878.355 470.79987 880.875 469 C 883.67625 467.75125 886.34902 467.11608 888.875 467.125 z "
       transform="matrix(0.8,0,0,-0.8,0,409)"
       id="path22" /><path
       inkscape:connector-curvature="0"
       id="path24"
       style="fill:#275b46;fill-opacity:1;fill-rule:evenodd;stroke:none"
       d="m 761.518,6.08086 c 0.216,0 0.216,9.64804 0,9.64804 0,0.8641 0,1.7281 0,2.5199 3.312,0.8641 3.312,0.8641 4.392,0.8641 0.144,-0.216 0.288,-0.432 0.504,-0.6481 -0.072,-4.464 -0.072,-8.99996 -0.072,-13.53589 C 765.19,4.28086 764.038,3.56094 762.886,2.84102 751.798,0.320703 740.35,2.40898 735.742,13.7848 c -1.44,8.9281 -0.216,15.6242 6.768,21.6 7.272,4.032 16.56,5.0402 23.76,0.216 0,-4.6801 -4.248,-1.8719 -6.84,-0.936 -14.328,2.6641 -21.096,-7.2 -18.144,-20.3039 3.744,-8.20817 11.592,-10.79996 20.232,-8.28004" /><path
       inkscape:connector-curvature="0"
       id="path26"
       style="fill:#b0cab9;fill-opacity:1;fill-rule:evenodd;stroke:none"
       d="m 256.438,2.1207 c 20.88,0 41.832,0 62.784,0 0,-0.07187 0,-0.21562 0,-0.35976 -20.952,0.14414 -41.904,0.28789 -62.784,0.35976" /><path
       inkscape:connector-curvature="0"
       id="path28"
       style="fill:#b0cab9;fill-opacity:1;fill-rule:evenodd;stroke:none"
       d="m 330.454,2.04883 c 17.352,0 34.704,0 52.128,0 0,-0.07188 0,-0.14375 0,-0.28789 -17.424,0 -34.776,0 -52.128,0 0,0.14414 0,0.21601 0,0.28789" /><path
       inkscape:connector-curvature="0"
       id="path30"
       style="fill:#b0cab9;fill-opacity:1;fill-rule:evenodd;stroke:none"
       d="m 391.222,1.90508 c 11.016,0.07187 22.032,0.14375 33.12,0.14375 0,0 0,-0.07188 0,-0.14375 -11.088,0 -22.104,0 -33.12,0" /><path
       inkscape:connector-curvature="0"
       id="path32"
       style="fill:#275b46;fill-opacity:1;fill-rule:evenodd;stroke:none"
       d="m 0.621875,1.90508 c 0,0.28789 0,0.57578 0,0.86367 C 1.41367,4.71289 31.5816,101.769 39.0699,126.537 c 23.9039,76.968 47.8078,153.936 71.7121,230.832 4.968,18.072 11.808,33.048 27.432,44.064 6.912,4.032 12.6,5.688 20.448,6.84 2.952,0.072 5.904,0.144 8.928,0.144 2.808,-0.36 5.616,-0.792 8.424,-1.224 17.28,-4.536 30.744,-12.6 45.288,-22.824 0.072,-0.36 0.144,-0.72 0.288,-1.152 -7.416,-36.072 -14.76,-72.144 -22.104,-108.216 -0.72,-5.544 -1.512,-8.136 2.448,-12.096 1.8,-1.152 1.8,-1.152 70.776,-36.576 C 262.774,151.521 252.838,76.7129 242.902,1.90508 214.75,1.97695 186.598,2.04883 158.518,2.1207 c 10.872,55.5844 21.744,111.1683 32.688,166.6803 -0.216,2.376 -0.216,2.376 -0.648,3.672 -3.168,4.824 -9.216,5.256 -11.952,-0.216 C 166.942,115.521 155.35,58.7848 143.758,2.04883 96.0219,2.04883 48.3578,1.97695 0.69375,1.90508 c -0.071875,0 -0.071875,0 -0.071875,0" /><path
       inkscape:connector-curvature="0"
       id="path34"
       style="fill:#275b46;fill-opacity:1;fill-rule:evenodd;stroke:none"
       d="m 394.894,162.465 c 0,2.448 0,4.824 0,7.2 -0.648,3.096 -2.52,4.896 -5.04,6.624 -58.608,30.816 -117.144,61.632 -175.68,92.376 -2.52,2.52 -2.232,3.96 -2.088,7.632 6.552,33.408 13.104,66.816 19.656,100.224 0.216,0 0.432,-0.072 0.648,-0.144 61.344,-46.944 122.688,-93.888 184.104,-140.904 6.912,-6.336 7.272,-11.808 7.92,-20.952 -0.072,-70.776 -0.072,-141.6241 -0.072,-212.47217 -11.088,0 -22.104,-0.07188 -33.12,-0.14375 1.224,53.56792 2.448,107.06392 3.672,160.55992" /><path
       inkscape:connector-curvature="0"
       id="path36"
       style="fill:#70a184;fill-opacity:1;fill-rule:evenodd;stroke:none"
       d="m 424.342,1.90508 c 0,0.07187 0,0.14375 0,0.14375 0,70.84807 0,141.69617 0.072,212.47217 -0.072,-70.848 -0.072,-141.696 -0.072,-212.61592" /><path
       inkscape:connector-curvature="0"
       id="path38"
       style="fill:#275b46;fill-opacity:1;fill-rule:evenodd;stroke:none"
       d="m 256.438,2.1207 c 8.856,72.9363 17.784,145.8003 26.712,218.6643 16.704,-8.352 33.48,-16.704 50.256,-25.128 0,-0.792 0.072,-1.584 0.144,-2.376 -4.824,-63.72 -9.576,-127.44 -14.328,-191.1603 -20.952,0 -41.904,0 -62.784,0" /><path
       inkscape:connector-curvature="0"
       id="path40"
       style="fill:#275b46;fill-opacity:1;fill-rule:evenodd;stroke:none"
       d="m 330.454,2.04883 c 4.392,62.92817 8.784,125.85617 13.248,188.71217 13.464,-6.696 26.928,-13.464 40.392,-20.232 2.232,-1.728 2.736,-2.664 3.312,-5.328 -1.656,-54.36 -3.24,-108.7201 -4.824,-163.15217 -17.424,0 -34.776,0 -52.128,0" /><path
       inkscape:connector-curvature="0"
       id="path42"
       style="fill:#b0cab9;fill-opacity:1;fill-rule:evenodd;stroke:none"
       d="m 496.342,2.26484 c 2.16,0 4.32,0 6.48,0 0,-0.21601 -6.48,-0.21601 -6.48,0" /><path
       inkscape:connector-curvature="0"
       id="path44"
       style="fill:#275b46;fill-opacity:1;fill-rule:evenodd;stroke:none"
       d="m 466.102,3.12891 c -0.144,10.43989 -0.216,20.80779 -0.288,31.17619 -3.672,0.0719 -7.344,0.1437 -11.016,0.1437 -0.216,0.0719 -0.432,0.1442 -0.576,0.216 0,1.4403 0.576,2.1602 1.224,3.384 0.864,0.216 0.864,0.216 4.608,-0.1437 7.632,0 15.336,-0.0723 23.04,-0.1442 0.144,-1.3679 -0.864,-2.3761 -1.656,-3.3121 -3.456,0 -6.912,-0.0718 -10.296,-0.1437 C 470.998,23.793 470.926,13.209 470.854,2.625 468.622,2.33672 468.622,2.33672 466.246,2.33672 466.174,2.625 466.102,2.91289 466.102,3.12891" /><path
       inkscape:connector-curvature="0"
       id="path46"
       style="fill:#275b46;fill-opacity:1;fill-rule:evenodd;stroke:none"
       d="m 555.022,36.2488 c 0,-4.5359 0,-9.0718 0.072,-13.6078 0,-0.216 18.504,-0.216 18.504,0 0,4.8957 0.072,9.7199 0.144,14.5438 0.648,1.3679 3.744,0.9359 5.04,0.9359 -0.072,-1.5117 -0.144,-3.0957 -0.144,-4.6797 -0.216,0 -0.216,-28.08006 0,-28.08006 0,-0.86406 0.072,-1.8 0.144,-2.73594 -1.584,-0.07227 -3.168,-0.21602 -4.68,-0.36016 -0.144,0.14414 -0.216,0.28789 -0.288,0.36016 -0.072,5.61602 -0.144,11.1598 -0.216,16.7039 -6.192,-0.0719 -12.384,-0.1441 -18.504,-0.2879 -0.072,-5.184 -0.144,-10.44022 -0.216,-15.69608 -0.072,-0.14414 -0.144,-0.28789 -0.216,-0.5039 -2.016,-0.5043 -2.016,-0.5043 -4.824,-0.72032 0,11.8082 0,23.5441 0,35.2801 1.224,0.7922 3.168,0.7922 4.68,0.648 0.144,-0.5758 0.288,-1.1519 0.504,-1.8" /><path
       inkscape:connector-curvature="0"
       id="path48"
       style="fill:#275b46;fill-opacity:1;fill-rule:evenodd;stroke:none"
       d="m 683.758,2.1207 c -2.088,0.07227 -4.176,0.14414 -6.264,0.14414 -1.872,0.14414 -5.76,-0.14414 -6.912,1.58399 -0.144,10.72817 -0.216,21.38397 -0.288,32.04027 -0.072,0.6476 -0.072,1.2238 -0.072,1.8 1.656,0.216 3.096,0.3597 4.752,0.216 0.072,-0.2883 0.144,-0.5762 0.288,-0.9363 0,-10.2239 0,-20.4481 0.072,-30.7438 1.368,-0.14414 2.736,-0.28828 4.104,-0.50391 2.16,0 4.32,0 6.48,0 1.368,0.14375 2.736,0.28789 4.104,0.43164 -1.008,-3.67187 -2.88,-3.67187 -6.264,-4.03203" /><path
       inkscape:connector-curvature="0"
       id="path50"
       style="fill:#275b46;fill-opacity:1;fill-rule:evenodd;stroke:none"
       d="m 784.558,2.76875 c -0.072,5.47227 -0.144,10.94415 -0.144,16.41605 -0.288,0.648 -0.504,1.2961 -0.72,1.9441 -1.296,1.8719 -11.52,14.832 -11.088,16.2719 2.232,0.432 3.528,1.2961 5.328,-0.1438 3.096,-4.464 6.264,-8.9281 9.432,-13.3922 1.728,0.8641 9.792,13.536 10.224,14.1122 2.016,0 2.016,0 3.888,-0.504 0,-0.3601 0.072,-0.7203 0.144,-1.08 -3.888,-5.3282 -9.72,-11.2321 -12.168,-17.4242 0,-3.8161 0,-7.6321 0,-11.51997 0.072,-1.58399 0.144,-3.16797 0.288,-4.82383 -1.584,-0.14414 -3.168,-0.28828 -4.68,-0.5043 -0.216,0.21602 -0.36,0.43203 -0.504,0.64805" /><path
       inkscape:connector-curvature="0"
       id="path52"
       style="fill:#275b46;fill-opacity:1;fill-rule:evenodd;stroke:none"
       d="m 489.358,3.70508 c 0,11.15972 0,22.31992 0,33.47972 1.152,0.2882 2.376,0.5043 3.6,0.7203 4.752,-0.0723 9.504,-0.1442 14.256,-0.216 -0.648,-2.0161 -1.296,-2.8801 -3.24,-3.384 -3.312,0.0719 -6.552,0.1437 -9.792,0.1437 -0.144,0 -0.216,0 -0.288,0 0,-3.8879 0,-7.848 0,-11.8078 0.072,0 0.144,0 0.288,0 4.176,-0.1441 8.352,-0.3601 12.6,-0.5762 -0.36,-0.7918 -0.72,-1.6558 -1.08,-2.5199 -3.312,-1.0801 -7.992,-0.432 -11.52,-0.5039 -0.144,0 -0.216,0 -0.288,0 0.144,-12.88827 0.144,-12.88827 0.288,-12.816 1.44,-0.14414 2.88,-0.28828 4.32,-0.50391 2.52,0 5.04,0 7.632,0 0.936,0.07188 1.872,0.14375 2.808,0.14375 -2.088,-3.52812 -1.8,-3.16796 -6.12,-3.6 -2.16,0 -4.32,0 -6.48,0 -2.304,0.14414 -5.184,0 -6.984,1.44024" /><path
       inkscape:connector-curvature="0"
       id="path54"
       style="fill:#70a184;fill-opacity:1;fill-rule:evenodd;stroke:none"
       d="m 470.854,2.625 c 0.072,10.584 0.144,21.168 0.288,31.6801 0,0 0,-0.0723 0,-0.1442 -0.144,-10.5121 -0.216,-21.0242 -0.288,-31.5359" /><path
       inkscape:connector-curvature="0"
       id="path56"
       style="fill:#437468;fill-opacity:1;fill-rule:evenodd;stroke:none"
       d="m 617.518,2.625 c 0,11.8801 0,23.6879 0,35.4957 0.216,0 0.216,-35.4957 0,-35.4957" /><path
       inkscape:connector-curvature="0"
       id="path58"
       style="fill:#b0cab9;fill-opacity:1;fill-rule:evenodd;stroke:none"
       d="m 784.414,19.1848 c 0,-5.4719 0.072,-10.94378 0.144,-16.41605 -0.216,0 -0.216,0 -0.144,16.41605" /><path
       inkscape:connector-curvature="0"
       id="path60"
       style="fill:#b0cab9;fill-opacity:1;fill-rule:evenodd;stroke:none"
       d="m 465.814,34.1609 c 0,0.0719 0,0.1442 0,0.1442 0.072,-10.3684 0.144,-20.7363 0.288,-31.17619 -0.144,10.36799 -0.216,20.73589 -0.288,31.03199" /><path
       inkscape:connector-curvature="0"
       id="path62"
       style="fill:#437468;fill-opacity:1;fill-rule:evenodd;stroke:none"
       d="m 489.358,37.1848 c 0,-11.1598 0,-22.32 0,-33.47972 -0.216,0 -0.216,33.47972 0,33.47972" /><path
       inkscape:connector-curvature="0"
       id="path68"
       style="fill:#437468;fill-opacity:1;fill-rule:evenodd;stroke:none"
       d="m 578.638,33.441 c 0,-9.3601 0,-18.7199 0,-28.08006 -0.216,0 -0.216,28.08006 0,28.08006" /><path
       inkscape:connector-curvature="0"
       id="path70"
       style="fill:#437468;fill-opacity:1;fill-rule:evenodd;stroke:none"
       d="m 494.182,19.041 c 0,-4.248 0,-8.4961 0,-12.816 -0.144,-0.07227 -0.144,-0.07227 -0.288,12.816 0.072,0 0.144,0 0.288,0" /><path
       inkscape:connector-curvature="0"
       id="path72"
       style="fill:#437468;fill-opacity:1;fill-rule:evenodd;stroke:none"
       d="m 761.518,6.08086 c 0,3.23984 0,6.48004 0,9.64804 0.216,0 0.216,-9.64804 0,-9.64804" /><path
       inkscape:connector-curvature="0"
       id="path74"
       style="fill:#437468;fill-opacity:1;fill-rule:evenodd;stroke:none"
       d="m 506.782,22.0648 c -4.248,0.2161 -8.424,0.4321 -12.6,0.5762 4.176,0 8.424,0 12.672,0 -0.072,-0.1441 -0.072,-0.3601 -0.072,-0.5762" /><path
       inkscape:connector-curvature="0"
       id="path76"
       style="fill:#437468;fill-opacity:1;fill-rule:evenodd;stroke:none"
       d="m 555.094,22.641 c 6.12,0 12.312,0 18.504,0 0,-0.216 -18.504,-0.216 -18.504,0" /><path
       inkscape:connector-curvature="0"
       id="path78"
       style="fill:#437468;fill-opacity:1;fill-rule:evenodd;stroke:none"
       d="m 494.182,34.4488 c 0,-0.0718 0,-0.1437 0,-0.2879 0,-3.816 0,-7.632 0,-11.5199 -0.144,0 -0.216,0 -0.288,0 0,3.9598 0,7.9199 0,11.8078 0.072,0 0.144,0 0.288,0" /><path
       inkscape:connector-curvature="0"
       id="path80"
       style="fill:#b0cab9;fill-opacity:1;fill-rule:evenodd;stroke:none"
       d="m 454.798,34.4488 c 3.672,0 7.344,-0.0718 11.016,-0.1437 0,0 0,-0.0723 0,-0.1442 -3.672,0.1442 -7.344,0.2161 -11.016,0.2879" /><path
       inkscape:connector-curvature="0"
       id="path82"
       style="fill:#b0cab9;fill-opacity:1;fill-rule:evenodd;stroke:none"
       d="m 471.142,34.1609 c 0,0.0719 0,0.1442 0,0.1442 3.384,0.0719 6.84,0.1437 10.296,0.1437 -3.456,-0.0718 -6.912,-0.1437 -10.296,-0.2879" /><path
       inkscape:connector-curvature="0"
       id="path84"
       style="fill:#b0cab9;fill-opacity:1;fill-rule:evenodd;stroke:none"
       d="m 494.182,34.1609 c 0,0.1442 0,0.2161 0,0.2879 3.24,0 6.48,-0.0718 9.792,-0.1437 -3.312,0 -6.552,-0.0723 -9.792,-0.1442" /><path
       inkscape:connector-curvature="0"
       id="path86"
       style="fill:#70a184;fill-opacity:1;fill-rule:evenodd;stroke:none"
       d="m 492.958,37.9051 c 14.328,-0.0723 14.328,-0.0723 14.256,-0.216 -4.752,0.0718 -9.504,0.1437 -14.256,0.216" /><path
       inkscape:connector-curvature="0"
       id="path88"
       style="fill:#275b46;fill-opacity:1;fill-rule:evenodd;stroke:none"
       d="m 476.974,82.7609 c 0,-6.3359 0,-12.7441 0,-19.1519 -0.072,-0.216 -0.144,-0.432 -0.216,-0.7199 -1.44,-0.4321 -2.664,-0.6481 -4.176,-0.7203 0,1.08 0,2.0882 0.072,3.096 -0.072,10.0082 -0.072,20.0161 -0.072,30.0243 -1.08,1.5839 -1.08,1.5839 -1.224,2.3757 1.152,0.2161 4.752,0.2879 5.4,0.0719 11.088,-15.0476 11.088,-15.0476 20.448,-28.3679 0,9.3601 0,18.7203 0,28.0082 1.152,0.7918 2.736,0.5039 4.104,0.5757 0,-1.2238 0,-2.4476 0.072,-3.7437 -0.144,-10.5121 -0.216,-21.0961 -0.288,-31.6801 -1.368,-0.432 -2.304,-0.7199 -3.744,-0.5762 -6.912,9.3602 -14.112,18.7922 -20.304,28.6563 -0.216,-2.0883 -0.216,-2.0883 -0.072,-7.8481" /><path
       style="fill:#275b46;fill-opacity:1;fill-rule:evenodd;stroke:none"
       d="M 691.15625 387.875 C 685.50115 388.02808 679.8625 390.26875 674.96875 394.65625 C 668.75875 402.6665 668.3125 410.30762 670.5625 419.9375 C 674.7925 428.48775 679.37375 432.35588 689.09375 434.15625 C 698.36375 433.88612 703.5825 432.27 710.0625 425.25 C 716.0025 415.08013 715.55375 405.27488 709.34375 395.375 C 703.98875 390.21118 697.56537 387.70151 691.15625 387.875 z M 690.28125 391.96875 C 706.84125 392.59863 710.4425 408.87112 705.3125 422.28125 C 701.1725 428.49125 696.91875 429.75725 689.71875 429.9375 C 676.75875 425.79738 673.62625 414.6235 677.40625 401.84375 C 680.10625 395.99363 683.98125 393.04875 690.28125 391.96875 z "
       transform="matrix(0.8,0,0,-0.8,0,409)"
       id="path90" /><path
       style="fill:#275b46;fill-opacity:1;fill-rule:evenodd;stroke:none"
       d="M 946.09375 387.90625 C 937.90933 388.01147 930.54937 392.05241 926.15625 400.34375 C 921.74625 415.19338 925.175 429.211 941.375 433.53125 C 941.735 433.89112 943.6125 433.88612 944.0625 434.15625 C 946.5825 433.976 949.105 433.90225 951.625 433.8125 C 959.995 431.5625 964.86125 426.95513 968.28125 419.125 C 970.80125 406.88525 968.3625 396.90625 957.5625 390.15625 C 953.70937 388.60938 949.81394 387.85842 946.09375 387.90625 z M 947.5 391.96875 C 955.69 393.4985 959.46375 397.0835 962.34375 405.09375 C 963.42375 415.26363 962.50625 424.72613 952.15625 429.40625 C 949.90625 429.76612 949.9075 429.75725 944.6875 429.9375 C 940.0975 428.58738 937.39625 426.96725 934.15625 423.1875 C 926.68625 410.7675 931.3 392.50875 947.5 391.96875 z "
       transform="matrix(0.8,0,0,-0.8,0,409)"
       id="path92" /><path
       inkscape:connector-curvature="0"
       id="path94"
       style="fill:#275b46;fill-opacity:1;fill-rule:evenodd;stroke:none"
       d="m 788.014,83.7688 c 0,-6.768 0,-13.6079 0,-20.4477 -0.792,-1.1523 -2.808,-1.0801 -4.176,-1.1523 -0.072,11.0882 -0.144,22.1042 -0.144,33.1203 -0.648,0.8636 -0.648,0.8636 -1.296,2.3757 1.152,0.2161 4.752,0.2879 5.4,0.0719 10.944,-14.8316 10.944,-14.8316 20.592,-28.584 0,9.5043 0.072,19.0082 0.144,28.4403 2.232,0.3597 2.232,0.3597 3.816,0.3597 0,-2.5199 0,-5.0398 0.072,-7.6316 -0.144,-9.216 -0.216,-18.5043 -0.288,-27.7922 -1.368,-0.432 -2.304,-0.7199 -3.744,-0.5762 -6.984,9.4321 -13.968,18.7922 -20.304,28.6563 -0.216,-1.6563 -0.216,-1.6563 -0.072,-6.8402" /><path
       inkscape:connector-curvature="0"
       id="path96"
       style="fill:#275b46;fill-opacity:1;fill-rule:evenodd;stroke:none"
       d="m 457.534,62.6008 c -0.072,9.864 -0.072,19.6562 -0.072,29.448 -0.072,1.8719 -0.144,3.7442 -0.144,5.616 1.008,0.2161 1.008,0.2161 4.536,0.2161 0.36,-0.5039 0.36,-0.5039 0.504,-1.6559 -0.072,-11.1602 -0.144,-22.3922 -0.144,-33.6242 -1.584,-0.1438 -3.096,-0.216 -4.68,0" /><path
       inkscape:connector-curvature="0"
       id="path98"
       style="fill:#275b46;fill-opacity:1;fill-rule:evenodd;stroke:none"
       d="m 511.678,62.9609 c -0.072,10.8 -0.144,21.6 -0.144,32.3282 -0.072,0.6476 -0.072,1.2957 -0.072,1.8718 0.432,0 0.72,0.2879 4.32,0.6481 5.04,0 10.08,0 15.12,0 -0.432,-1.368 -1.44,-3.5281 -3.168,-3.5281 -3.672,0 -7.344,0 -11.016,0 -0.072,-4.32 -0.144,-8.6399 -0.216,-13.0321 4.392,-0.0718 8.784,-0.1437 13.176,-0.2879 -0.144,-1.5121 -0.648,-2.0879 -1.656,-3.0961 -3.816,-0.0718 -7.56,-0.1437 -11.304,-0.216 -0.072,-1.7281 -0.144,-3.5281 -0.216,-5.3277 0,-1.8004 0,-3.6 0.072,-5.4004 0.216,-3.5277 0.216,-3.5277 0,-4.3199 -1.8,-0.2879 -1.8,-0.2879 -4.752,-0.216 -0.072,0.216 -0.144,0.432 -0.144,0.5761" /><path
       style="fill:#275b46;fill-opacity:1;fill-rule:evenodd;stroke:none"
       d="M 734.0625 389 C 731.02922 389.00144 727.85 389.23497 724.8125 389.4375 C 724.6325 402.75725 724.55875 416.09037 724.46875 429.5 C 724.37875 430.85012 724.375 432.18125 724.375 433.53125 C 725.545 433.53125 729.78 433.61525 730.5 432.625 L 730.78125 414.5625 C 732.58125 414.5625 734.35625 414.53525 736.15625 414.625 C 740.11625 420.2955 744.1025 425.99025 748.0625 431.75 C 750.6725 433.28025 753.44375 434.084 756.59375 433.09375 C 756.68375 432.73388 756.7 432.7275 749.5 423.1875 C 748.24 421.2075 743.1875 415.00387 743.1875 412.84375 C 746.7875 410.1435 748.95875 407.87838 750.21875 403.46875 C 751.02875 391.18347 743.16234 388.99568 734.0625 389 z M 735.28125 392.75 C 741.17238 392.93695 744.21 396.84312 743.625 404.375 C 741.285 410.76513 737.44125 410.77387 730.78125 410.59375 L 730.78125 393.21875 C 732.435 392.86445 733.92176 392.70686 735.28125 392.75 z "
       id="path100"
       transform="matrix(0.8,0,0,-0.8,0,409)" /><path
       inkscape:connector-curvature="0"
       id="path102"
       style="fill:#275b46;fill-opacity:1;fill-rule:evenodd;stroke:none"
       d="m 610.318,62.1688 c -0.36,0.1441 -0.72,0.2882 -1.08,0.3601 0.072,1.584 0.072,1.584 5.688,30.3121 0.144,1.584 0.288,3.0957 0.432,4.6078 1.512,0.216 2.88,0.5039 4.392,0.2879 4.176,-8.4238 7.2,-17.7117 10.584,-26.5679 3.528,8.3519 7.128,16.632 10.728,24.9121 0,0.5039 0.072,1.0082 0.144,1.4398 2.736,0.432 2.736,0.432 4.248,0.3602 0.072,-0.1442 0.216,-0.2879 0.36,-0.5039 1.944,-11.5922 3.96,-23.184 5.976,-34.7762 -1.512,-0.216 -3.024,-0.216 -4.608,0 -2.16,12.2402 -2.16,12.2402 -4.608,28.368 -3.6,-9.2161 -7.2,-18.4321 -10.8,-27.6477 -1.224,-0.432 -1.944,-0.5762 -3.312,-0.5762 -9.576,26.7121 -9.576,26.7121 -10.08,27.5039 -1.584,-9.1437 -3.168,-18.2879 -4.752,-27.5039 -0.144,-0.1441 -0.288,-0.2879 -0.36,-0.5039 -1.008,0 -2.016,0 -2.952,-0.0722" /><path
       style="fill:#275b46;fill-opacity:1;fill-rule:evenodd;stroke:none"
       d="M 845.53125 388.90625 C 841.39125 388.90625 841.37375 388.88612 839.84375 389.15625 C 840.02375 389.87587 840.19875 390.6235 840.46875 391.34375 C 835.24875 404.84375 824.46875 419.22262 822.21875 432.8125 C 824.10875 433.17237 825.7975 433.28125 827.6875 433.28125 C 830.2075 428.51125 830.23125 428.50387 834.28125 419.59375 C 840.04125 419.50387 845.86875 419.5 851.71875 419.5 C 853.33875 423.46 855.06125 430.3735 858.03125 433.34375 C 860.91125 433.34375 860.89375 433.34862 863.59375 432.71875 C 863.59375 432.35837 863.69125 432.02 863.78125 431.75 C 857.66125 417.44 851.56125 403.126 845.53125 388.90625 z M 843.09375 398 C 843.36375 398.27 843.63625 398.51513 843.90625 398.875 C 850.20625 414.26513 850.1875 414.27975 850.1875 415 L 836.0625 415 C 836.0625 414.27975 836.07375 414.29 843.09375 398 z "
       transform="matrix(0.8,0,0,-0.8,0,409)"
       id="path104" /><path
       inkscape:connector-curvature="0"
       id="path106"
       style="fill:#275b46;fill-opacity:1;fill-rule:evenodd;stroke:none"
       d="m 702.478,62.6008 c -0.072,10.584 -0.144,21.168 -0.216,31.6801 -3.744,0 -7.416,0 -11.088,0 -1.8,1.8 0.648,3.8879 2.664,3.6 8.568,0 17.136,0 25.704,-0.0719 -0.432,-1.5121 -0.864,-2.4481 -1.944,-3.5281 -3.456,0 -6.912,0 -10.296,-0.0719 -0.072,-10.5121 -0.144,-21.0242 -0.144,-31.6082 -1.584,-0.1438 -3.096,-0.216 -4.68,0" /><path
       inkscape:connector-curvature="0"
       id="path108"
       style="fill:#275b46;fill-opacity:1;fill-rule:evenodd;stroke:none"
       d="m 726.022,62.9609 c -0.072,10.9442 -0.144,21.8879 -0.144,32.7602 -0.072,0.6477 -0.144,1.2957 -0.144,1.9437 1.152,0.2161 1.152,0.2161 4.68,0.2161 0.072,-0.2161 0.216,-0.5039 0.36,-0.7918 0,-9.7922 0.072,-19.584 0.144,-29.4481 0.144,-3.9601 0.144,-3.9601 -0.144,-5.0402 -1.584,-0.1438 -3.024,-0.2879 -4.608,-0.216 -0.072,0.216 -0.144,0.432 -0.144,0.5761" /><path
       inkscape:connector-curvature="0"
       id="path110"
       style="fill:#70a184;fill-opacity:1;fill-rule:evenodd;stroke:none"
       d="m 702.262,94.209 c 0,0.0719 0,0.0719 0,0.0719 0.072,-10.5121 0.144,-21.0961 0.216,-31.6801 -0.072,10.584 -0.144,21.0961 -0.216,31.6082" /><path
       inkscape:connector-curvature="0"
       id="path112"
       style="fill:#b0cab9;fill-opacity:1;fill-rule:evenodd;stroke:none"
       d="m 511.534,95.2891 c 0,-10.7282 0.072,-21.5282 0.144,-32.3282 -0.216,0 -0.216,0 -0.144,32.3282" /><path
       inkscape:connector-curvature="0"
       id="path118"
       style="fill:#70a184;fill-opacity:1;fill-rule:evenodd;stroke:none"
       d="m 516.574,66.9207 c -0.072,1.8004 -0.072,3.6 -0.072,5.4004 0.072,0 0.144,0 0.216,0 -0.072,-1.8004 -0.144,-3.6 -0.144,-5.4004" /><path
       inkscape:connector-curvature="0"
       id="path120"
       style="fill:#b0cab9;fill-opacity:1;fill-rule:evenodd;stroke:none"
       d="m 516.502,72.3211 c 0.072,1.7996 0.144,3.5996 0.216,5.3277 0,-1.7281 0,-3.5281 0,-5.3277 -0.072,0 -0.144,0 -0.216,0" /><path
       inkscape:connector-curvature="0"
       id="path128"
       style="fill:#437468;fill-opacity:1;fill-rule:evenodd;stroke:none"
       d="m 516.502,81.2488 c 0.072,0 0.144,0 0.216,0 4.32,-0.0718 8.64,-0.1437 12.96,-0.2879 -4.392,0.1442 -8.784,0.2161 -13.176,0.2879" /><path
       inkscape:connector-curvature="0"
       id="path130"
       style="fill:#b0cab9;fill-opacity:1;fill-rule:evenodd;stroke:none"
       d="m 516.502,81.2488 c 0.072,4.3922 0.144,8.7121 0.216,13.0321 0,0 0,0 0,-0.0719 0,-4.3199 0,-8.6402 0,-12.9602 -0.072,0 -0.144,0 -0.216,0" /><path
       inkscape:connector-curvature="0"
       id="path132"
       style="fill:#70a184;fill-opacity:1;fill-rule:evenodd;stroke:none"
       d="m 516.718,94.209 c 0,0.0719 0,0.0719 0,0.0719 3.672,0 7.344,0 11.016,0 -3.672,0 -7.344,0 -11.016,-0.0719" /><path
       inkscape:connector-curvature="0"
       id="path134"
       style="fill:#70a184;fill-opacity:1;fill-rule:evenodd;stroke:none"
       d="m 691.174,94.2809 c 3.672,0 7.344,0 11.088,0 0,0 0,0 0,-0.0719 -3.744,0.0719 -7.416,0.0719 -11.088,0.0719" /><path
       inkscape:connector-curvature="0"
       id="path136"
       style="fill:#b0cab9;fill-opacity:1;fill-rule:evenodd;stroke:none"
       d="m 515.782,97.809 c 0,0.216 15.12,0.216 15.12,0 -5.04,0 -10.08,0 -15.12,0" /><path
       inkscape:connector-curvature="0"
       id="path138"
       style="fill:#275b46;fill-opacity:1;fill-rule:evenodd;stroke:none"
       d="m 476.974,142.809 c 0,-6.48 0,-12.96 0,-19.44 -0.72,-1.512 -2.808,-1.152 -4.392,-1.224 0,1.08 0,2.088 0.072,3.096 -0.072,10.008 -0.072,20.016 -0.072,30.024 -0.576,0.792 -1.152,1.44 -1.152,2.376 1.728,0.144 4.248,0.72 5.688,-0.36 6.696,-9.288 13.392,-18.576 20.088,-27.936 -0.072,9.072 -0.144,18.072 -0.144,27.072 0.072,0.36 0.216,0.72 0.36,1.08 1.224,0.36 1.224,0.36 4.032,0.432 -0.072,-1.224 -0.072,-2.448 -0.072,-3.744 -0.144,-10.584 -0.216,-21.168 -0.288,-31.824 -1.296,-0.288 -2.304,-0.576 -3.744,-0.576 -6.912,9.432 -14.256,18.936 -20.448,28.944 0,-2.592 0,-5.256 0.072,-7.92" /><path
       inkscape:connector-curvature="0"
       id="path140"
       style="fill:#275b46;fill-opacity:1;fill-rule:evenodd;stroke:none"
       d="m 514.774,121.641 c -3.816,1.08 -7.056,1.44 -5.256,5.976 4.824,-2.16 8.712,-3.96 13.032,-0.216 3.528,7.056 -4.536,10.728 -9.36,14.472 -4.68,5.328 -4.896,11.016 0.864,15.48 4.392,1.584 8.712,1.872 12.96,-0.504 0,-1.152 -0.288,-1.872 -0.864,-2.736 -3.096,0 -5.112,1.368 -8.496,0.576 -9.216,-5.76 3.744,-12.384 7.632,-15.84 3.096,-3.384 4.104,-6.552 2.88,-11.088 -3.024,-5.544 -7.416,-5.904 -13.392,-6.12" /><path
       inkscape:connector-curvature="0"
       id="path142"
       style="fill:#275b46;fill-opacity:1;fill-rule:evenodd;stroke:none"
       d="m 620.038,156.201 c 0,-6.192 0,-12.456 0,-18.72 1.08,-8.28 3.456,-12.24 12.096,-12.24 0.288,0.288 1.872,0.72 4.176,2.232 2.88,3.96 3.024,6.552 3.672,11.304 0.072,6.264 0.144,12.456 0.288,18.648 1.368,0.504 2.664,0.432 4.104,0.504 0,-6.48 0.072,-12.96 0.144,-19.44 -0.648,-5.472 -1.368,-9.936 -5.4,-13.968 -5.256,-3.528 -11.448,-3.6 -17.28,-1.296 -4.536,3.24 -5.472,6.552 -6.552,11.808 -0.072,7.56 -0.144,15.12 -0.144,22.608 1.584,0.216 1.584,0.216 4.608,0 0.072,-0.432 0.144,-0.936 0.288,-1.44" /><path
       style="fill:#275b46;fill-opacity:1;fill-rule:evenodd;stroke:none"
       d="M 974.125 312.9375 C 966.3679 313.20495 959.01594 317.25156 954.6875 325 C 948.9275 340.84 954.5875 355.0475 971.6875 359.1875 C 973.9375 359.0975 976.285 359.09375 978.625 359.09375 C 986.815 357.56375 991.57875 353.36375 995.71875 346.34375 C 999.04875 335.63375 997.88125 325.81875 989.78125 317.71875 C 984.91844 314.355 979.43249 312.75451 974.125 312.9375 z M 975.1875 317.5 C 979.06091 317.55952 982.76562 319.22875 986.5625 322.46875 C 991.3325 330.56875 992.3975 338.77375 988.4375 347.59375 C 986.0975 351.46375 982.85875 353.34125 978.71875 354.78125 C 977.27875 354.87125 975.9125 354.97625 974.5625 355.15625 C 968.1725 354.61625 964.66625 351.10625 961.15625 346.15625 C 958.36625 336.61625 957.73625 327.3325 965.65625 320.3125 C 969.0425 318.38313 972.17485 317.4537 975.1875 317.5 z "
       transform="matrix(0.8,0,0,-0.8,0,409)"
       id="path144" /><path
       inkscape:connector-curvature="0"
       id="path146"
       style="fill:#275b46;fill-opacity:1;fill-rule:evenodd;stroke:none"
       d="m 457.534,122.649 c -0.072,9.792 -0.072,19.584 -0.072,29.376 -0.072,1.872 -0.072,3.744 -0.072,5.544 1.584,0.216 3.096,0.144 4.68,0.072 0.072,-0.432 0.144,-0.936 0.288,-1.44 -0.072,-11.232 -0.144,-22.464 -0.144,-33.696 -1.584,0 -3.096,-0.072 -4.608,-0.144 -0.072,0.144 -0.072,0.216 -0.072,0.288" /><path
       inkscape:connector-curvature="0"
       id="path148"
       style="fill:#275b46;fill-opacity:1;fill-rule:evenodd;stroke:none"
       d="m 545.014,122.505 c 0,10.584 0,21.168 0,31.68 0,0.216 0,0.216 -11.232,0.144 -0.216,0.144 -0.432,0.288 -0.576,0.36 0,1.44 0.504,1.944 1.44,3.024 9.144,0 18.288,0 27.432,0 -0.072,-1.296 -0.792,-2.52 -1.656,-3.384 -10.584,0.072 -10.584,0.072 -10.584,-0.144 0,-9.864 0.072,-19.728 0.144,-29.664 -0.072,-0.648 -0.072,-1.296 -0.072,-2.016 -1.656,-0.144 -3.24,-0.216 -4.896,0" /><path
       inkscape:connector-curvature="0"
       id="path150"
       style="fill:#275b46;fill-opacity:1;fill-rule:evenodd;stroke:none"
       d="m 573.454,157.209 c 0,-9.72 0,-19.512 0,-29.304 0,-1.8 0.072,-3.6 0.144,-5.4 -1.656,-0.288 -1.656,-0.288 -4.896,-0.144 -0.144,11.808 -0.216,23.544 -0.288,35.28 1.728,0.216 1.728,0.216 4.824,0.072 0.072,-0.144 0.144,-0.288 0.216,-0.504" /><path
       inkscape:connector-curvature="0"
       id="path152"
       style="fill:#275b46;fill-opacity:1;fill-rule:evenodd;stroke:none"
       d="m 592.102,122.361 c -0.144,10.656 -0.216,21.24 -0.288,31.824 0,0.216 0,0.216 -11.016,0.144 -0.216,0.144 -0.432,0.288 -0.576,0.36 0,1.152 0.864,2.088 1.44,3.024 1.8,0.144 1.8,0.144 27.648,-0.072 -0.432,-1.152 -1.008,-2.376 -1.872,-3.24 -3.528,-0.072 -7.056,-0.144 -10.584,-0.216 0,-10.512 0.072,-21.096 0.144,-31.68 -1.512,-0.288 -1.512,-0.288 -4.896,-0.144" /><path
       inkscape:connector-curvature="0"
       id="path154"
       style="fill:#275b46;fill-opacity:1;fill-rule:evenodd;stroke:none"
       d="m 663.022,122.649 c -0.072,10.512 -0.144,21.024 -0.144,31.536 0,0.216 0,0.216 -11.304,0.144 -1.152,0.864 0.216,2.52 0.72,3.24 8.928,0.936 18.792,0.288 27.864,0.216 -0.216,-1.44 -0.864,-2.232 -1.656,-3.384 -3.528,-0.072 -7.056,-0.144 -10.584,-0.216 -0.072,-10.512 -0.144,-21.096 -0.144,-31.68 -1.512,-0.288 -1.512,-0.288 -4.752,-0.144 0,0.144 0,0.216 0,0.288" /><path
       inkscape:connector-curvature="0"
       id="path156"
       style="fill:#275b46;fill-opacity:1;fill-rule:evenodd;stroke:none"
       d="m 701.254,154.329 c -10.08,0.072 -10.08,0.072 -10.08,-0.144 -0.216,0 -0.216,-11.664 0,-11.664 4.176,0 8.352,0 12.528,-0.072 -0.432,-2.304 -0.72,-3.168 -2.88,-3.744 -3.24,0 -6.48,0 -9.648,0 -0.216,0 -0.216,-12.6 0,-12.6 4.824,-0.504 9.72,-0.432 14.544,-0.36 -0.936,-3.456 -2.376,-3.24 -5.616,-3.6 -2.448,0 -4.824,0 -7.2,0 -1.944,0.144 -3.816,0.288 -5.688,0.36 -0.36,0.36 -0.648,0.72 -0.936,1.08 -0.072,11.232 -0.144,22.464 -0.144,33.624 5.904,0.648 12.024,0.36 18,0.432 -0.504,-2.088 -0.936,-2.592 -2.88,-3.312" /><path
       inkscape:connector-curvature="0"
       id="path158"
       style="fill:#275b46;fill-opacity:1;fill-rule:evenodd;stroke:none"
       d="m 754.534,154.329 c -11.232,0.072 -11.232,0.072 -11.232,-0.144 -0.144,0 -0.216,0 -0.288,0 0,-4.32 0,-8.712 0,-13.104 0.072,0 0.144,0 0.288,0 4.392,0 8.784,0 13.176,-0.072 -0.648,-2.376 -0.792,-2.52 -2.88,-3.384 -3.456,0 -6.912,-0.072 -10.296,-0.144 -0.072,-1.728 -0.144,-3.456 -0.144,-5.256 0,-3.24 0.072,-6.48 0.144,-9.72 -1.44,-0.288 -1.44,-0.288 -4.896,-0.144 -0.072,11.664 -0.144,23.256 -0.144,34.848 6.336,0.576 12.744,0.504 19.08,0.504 -0.288,-1.728 -0.936,-3.096 -2.808,-3.384" /><path
       inkscape:connector-curvature="0"
       id="path160"
       style="fill:#70a184;fill-opacity:1;fill-rule:evenodd;stroke:none"
       d="m 806.374,157.281 c 0,-11.664 0,-23.4 0,-35.136 -0.216,0 -0.216,35.136 0,35.136" /><path
       style="fill:#275b46;fill-opacity:1;fill-rule:evenodd;stroke:none"
       d="M 1017.875 313.75 C 1014.6266 313.79693 1011.2425 314.285 1007.9688 314.65625 L 1007.9688 358.5625 C 1012.2887 358.4725 1012.2787 358.485 1013.7188 358.125 C 1013.8088 351.915 1013.91 345.77625 1014 339.65625 C 1016.43 339.74625 1018.5825 339.12625 1020.5625 340.65625 C 1023.2625 344.79625 1025.9563 349.02 1028.6562 353.25 C 1032.9763 358.65 1032.4488 358.3125 1039.4688 358.3125 L 1039.75 357.5 C 1034.8 351.29 1030.4525 344.8125 1026.3125 338.0625 C 1033.5125 333.0225 1034.61 327.51 1032 319.5 C 1028.3438 314.775 1023.2891 313.67178 1017.875 313.75 z M 1016.5625 317.96875 C 1022.198 317.86785 1025.3137 318.8525 1027.125 325.625 C 1027.125 335.165 1021.92 335.5425 1014 335.8125 L 1014 318.0625 C 1014.9112 318.0175 1015.7574 317.98316 1016.5625 317.96875 z "
       transform="matrix(0.8,0,0,-0.8,0,409)"
       id="path162" /><path
       inkscape:connector-curvature="0"
       id="path164"
       style="fill:#b0cab9;fill-opacity:1;fill-rule:evenodd;stroke:none"
       d="m 544.798,154.185 c 0.072,0 0.144,0 0.216,0 0,-10.512 0,-21.096 0,-31.68 -0.072,10.584 -0.144,21.168 -0.216,31.68" /><path
       inkscape:connector-curvature="0"
       id="path166"
       style="fill:#b0cab9;fill-opacity:1;fill-rule:evenodd;stroke:none"
       d="m 549.982,124.521 c -0.072,9.936 -0.144,19.8 -0.144,29.664 0.072,0 0.144,0 0.216,0 -0.072,-9.864 -0.072,-19.728 -0.072,-29.664" /><path
       inkscape:connector-curvature="0"
       id="path170"
       style="fill:#70a184;fill-opacity:1;fill-rule:evenodd;stroke:none"
       d="m 691.174,138.705 c 0,0 0,-0.072 0,-0.144 0,-4.104 0,-8.28 0,-12.456 -0.216,0 -0.216,12.6 0,12.6" /><path
       inkscape:connector-curvature="0"
       id="path172"
       style="fill:#70a184;fill-opacity:1;fill-rule:evenodd;stroke:none"
       d="m 743.158,132.225 c 0,1.8 0.072,3.528 0.144,5.256 0,0 0,0 0,-0.072 -0.072,-1.728 -0.144,-3.456 -0.144,-5.184" /><path
       inkscape:connector-curvature="0"
       id="path174"
       style="fill:#b0cab9;fill-opacity:1;fill-rule:evenodd;stroke:none"
       d="m 743.302,137.409 c 0,0.072 0,0.072 0,0.072 3.384,0.072 6.84,0.144 10.296,0.144 -3.456,-0.072 -6.912,-0.144 -10.296,-0.216" /><path
       inkscape:connector-curvature="0"
       id="path176"
       style="fill:#70a184;fill-opacity:1;fill-rule:evenodd;stroke:none"
       d="m 691.174,138.561 c 0,0.072 0,0.144 0,0.144 3.168,0 6.408,0 9.648,0 -3.24,0 -6.48,-0.072 -9.648,-0.144" /><path
       inkscape:connector-curvature="0"
       id="path180"
       style="fill:#70a184;fill-opacity:1;fill-rule:evenodd;stroke:none"
       d="m 743.302,141.081 c 0,0.072 0,0.144 0,0.144 4.392,-0.072 8.784,-0.144 13.176,-0.216 -4.392,0.072 -8.784,0.072 -13.176,0.072" /><path
       inkscape:connector-curvature="0"
       id="path182"
       style="fill:#70a184;fill-opacity:1;fill-rule:evenodd;stroke:none"
       d="m 743.302,154.185 c 0,-4.32 0,-8.64 0,-12.96 0,0 0,-0.072 0,-0.144 -0.144,0 -0.216,0 -0.288,0 0,4.392 0,8.784 0,13.104 0.072,0 0.144,0 0.288,0" /><path
       inkscape:connector-curvature="0"
       id="path184"
       style="fill:#b0cab9;fill-opacity:1;fill-rule:evenodd;stroke:none"
       d="m 691.174,142.521 c 0,0.072 0,0.144 0,0.144 4.176,-0.072 8.352,-0.144 12.528,-0.216 -4.176,0.072 -8.352,0.072 -12.528,0.072" /><path
       inkscape:connector-curvature="0"
       id="path186"
       style="fill:#70a184;fill-opacity:1;fill-rule:evenodd;stroke:none"
       d="m 691.174,154.185 c 0,-3.816 0,-7.632 0,-11.52 0,0 0,-0.072 0,-0.144 -0.216,0 -0.216,11.664 0,11.664" /><path
       inkscape:connector-curvature="0"
       id="path188"
       style="fill:#437468;fill-opacity:1;fill-rule:evenodd;stroke:none"
       d="m 533.782,154.329 c 11.232,0.072 11.232,0.072 11.232,-0.144 -0.072,0 -0.144,0 -0.216,0 -3.672,0.072 -7.344,0.144 -11.016,0.144" /><path
       inkscape:connector-curvature="0"
       id="path190"
       style="fill:#437468;fill-opacity:1;fill-rule:evenodd;stroke:none"
       d="m 549.838,154.185 c 0,0.216 0,0.216 10.584,0.144 -3.456,0 -6.912,-0.072 -10.368,-0.144 -0.072,0 -0.144,0 -0.216,0" /><path
       inkscape:connector-curvature="0"
       id="path192"
       style="fill:#437468;fill-opacity:1;fill-rule:evenodd;stroke:none"
       d="m 580.798,154.329 c 11.016,0.072 11.016,0.072 11.016,-0.144 -3.672,0.072 -7.344,0.144 -11.016,0.144" /><path
       inkscape:connector-curvature="0"
       id="path194"
       style="fill:#437468;fill-opacity:1;fill-rule:evenodd;stroke:none"
       d="m 651.574,154.329 c 11.304,0.072 11.304,0.072 11.304,-0.144 -3.816,0.072 -7.56,0.144 -11.304,0.144" /><path
       inkscape:connector-curvature="0"
       id="path196"
       style="fill:#437468;fill-opacity:1;fill-rule:evenodd;stroke:none"
       d="m 691.174,154.185 c 0,0.216 0,0.216 10.08,0.144 -3.384,0 -6.768,-0.072 -10.08,-0.144" /><path
       inkscape:connector-curvature="0"
       id="path198"
       style="fill:#437468;fill-opacity:1;fill-rule:evenodd;stroke:none"
       d="m 743.302,154.185 c 0,0.216 0,0.216 11.232,0.144 -3.744,0 -7.488,-0.072 -11.232,-0.144" /><path
       inkscape:connector-curvature="0"
       id="path200"
       style="fill:#275b46;fill-opacity:1;fill-rule:evenodd;stroke:none"
       d="m 554.302,181.545 c -3.096,0.288 -4.896,0.72 -7.2,2.664 0,1.44 0.216,2.16 0.792,3.384 5.4,-3.384 13.248,-3.96 13.896,3.888 -1.44,4.968 -7.848,7.992 -11.52,11.448 -4.464,6.768 -2.52,12.024 4.68,15.12 4.032,0.648 6.696,0.216 10.152,-1.512 0,-3.96 -1.44,-2.664 -4.68,-2.016 -1.728,1.728 -5.76,-0.72 -7.056,-2.088 -2.808,-9.432 10.944,-10.512 13.464,-19.08 0,-5.616 -1.08,-8.784 -6.696,-11.232 -1.944,-0.144 -3.888,-0.36 -5.832,-0.576" /><path
       inkscape:connector-curvature="0"
       id="path202"
       style="fill:#275b46;fill-opacity:1;fill-rule:evenodd;stroke:none"
       d="m 593.902,202.065 c 0,-6.192 0,-12.456 0,-18.72 -0.792,-1.584 -2.736,-1.224 -4.248,-1.296 -0.072,11.016 -0.144,22.032 -0.216,32.976 -0.576,0.864 -1.008,1.152 -1.008,2.232 2.16,0.36 2.16,0.36 4.824,0.288 0.504,-0.288 0.504,-0.288 17.424,-23.184 1.08,-1.656 2.232,-3.312 3.384,-5.04 0.072,9.36 0.144,18.72 0.288,28.008 1.44,0.288 1.44,0.288 4.032,0.36 -0.072,-2.232 -0.144,-4.536 -0.144,-6.84 -0.072,-9.432 -0.144,-18.936 -0.216,-28.44 -0.792,-0.792 -3.24,-0.864 -4.248,-0.288 -6.696,9.288 -13.68,18.576 -19.944,28.152 0,-2.736 0,-5.472 0.072,-8.208" /><path
       inkscape:connector-curvature="0"
       id="path204"
       style="fill:#275b46;fill-opacity:1;fill-rule:evenodd;stroke:none"
       d="m 457.462,190.185 c 0.216,0 0.216,21.384 0,21.384 0,1.944 0,3.816 0,5.688 1.584,0.144 2.88,0.288 4.536,0.216 0.072,-0.576 0.216,-1.152 0.36,-1.728 0,-4.392 0.072,-8.856 0.144,-13.32 6.048,0 12.096,0 18.216,0 0,4.68 0.072,9.36 0.144,14.04 0.504,1.656 3.672,1.224 5.112,1.224 0,-11.736 0,-23.472 0,-35.28 -1.152,-0.216 -1.152,-0.216 -4.608,-0.216 -0.144,0.144 -0.288,0.288 -0.432,0.432 -0.072,5.472 -0.144,10.944 -0.216,16.416 -0.792,0 -1.584,0 -2.376,-0.072 -15.84,0.072 -15.84,0.072 -15.84,-0.144 -0.072,-5.184 -0.144,-10.44 -0.144,-15.696 -0.936,-1.296 -3.456,-0.936 -4.896,-1.008 0,2.736 0,5.4 0,8.064" /><path
       inkscape:connector-curvature="0"
       id="path206"
       style="fill:#275b46;fill-opacity:1;fill-rule:evenodd;stroke:none"
       d="m 496.054,183.561 c 0,11.088 0,22.176 0,33.264 1.152,0.216 2.376,0.432 3.6,0.576 4.68,0 9.432,0 14.184,-0.072 0,-1.152 -0.648,-2.232 -1.512,-3.024 -1.44,-0.288 -1.44,-0.288 -11.448,-0.36 -0.216,0 -0.216,-11.52 0,-11.52 4.104,0 8.28,0 12.456,-0.072 -0.216,-1.872 -0.72,-3.24 -2.592,-3.672 -3.312,0 -6.624,0 -9.864,-0.072 -0.216,0 -0.216,-12.528 0,-12.528 4.968,-0.504 10.08,0.072 14.904,-0.576 -0.504,-1.224 -1.224,-2.448 -2.448,-3.168 -1.512,-0.216 -1.512,-0.216 -14.472,-0.144 -1.368,0.216 -2.016,0.288 -2.808,1.368" /><path
       inkscape:connector-curvature="0"
       id="path208"
       style="fill:#275b46;fill-opacity:1;fill-rule:evenodd;stroke:none"
       d="m 522.478,183.489 c 0,11.304 0,22.608 0,33.84 1.872,0.288 1.872,0.288 4.536,0.072 0,-0.216 0.072,-0.432 0.144,-0.72 0,-10.152 0.072,-20.376 0.144,-30.6 4.896,-0.576 9.792,-0.504 14.688,-0.504 -0.648,-1.584 -1.008,-2.16 -2.304,-3.24 -1.44,-0.216 -1.44,-0.216 -14.4,-0.144 -1.224,0.216 -2.088,0.288 -2.808,1.296" /><path
       inkscape:connector-curvature="0"
       id="path210"
       style="fill:#275b46;fill-opacity:1;fill-rule:evenodd;stroke:none"
       d="m 574.534,182.409 c -0.072,10.368 -0.144,20.736 -0.216,31.032 0,1.296 0,2.592 0,3.816 1.584,0.144 2.88,0.288 4.608,0.216 0.072,-0.576 0.144,-1.152 0.288,-1.728 -0.072,-31.32 -0.072,-31.32 0.144,-31.32 0,-0.648 0.072,-1.296 0.144,-2.016 -1.296,-0.216 -4.824,-0.216 -4.968,0" /><path
       inkscape:connector-curvature="0"
       id="path212"
       style="fill:#275b46;fill-opacity:1;fill-rule:evenodd;stroke:none"
       d="m 628.534,182.769 c -0.072,10.872 -0.072,21.672 -0.072,32.472 0,0.72 0,1.368 0.072,2.016 1.584,0.144 2.952,0.288 4.608,0.216 0.072,-0.144 0.144,-0.288 0.216,-0.504 0.072,-5.112 0.144,-10.224 0.216,-15.408 5.472,5.4 10.944,10.8 16.416,16.128 0.72,0 4.824,0.576 4.248,-1.224 -6.84,-7.128 -6.84,-7.128 -14.976,-15.048 0,-1.656 5.184,-6.696 6.336,-8.136 2.304,-2.448 4.608,-4.896 6.912,-7.416 2.808,-2.448 2.808,-2.448 3.24,-3.24 -2.88,-1.44 -5.76,-0.432 -7.92,1.512 -4.752,5.328 -9.504,10.656 -14.256,15.984 -0.072,-4.032 -0.072,-8.136 -0.072,-12.24 0,-1.728 0,-3.528 0.072,-5.328 -1.656,-0.288 -3.312,-0.36 -5.04,-0.432 0,0.216 0,0.432 0,0.648" /><path
       inkscape:connector-curvature="0"
       id="path214"
       style="fill:#275b46;fill-opacity:1;fill-rule:evenodd;stroke:none"
       d="m 663.382,182.625 c 0,11.52 0,23.04 0,34.56 1.44,0.288 1.44,0.288 4.536,0.36 0.288,-30.528 0.288,-30.528 0.504,-35.136 -2.952,-0.288 -2.952,-0.288 -4.68,-0.216 -0.144,0.144 -0.288,0.288 -0.36,0.432" /><path
       inkscape:connector-curvature="0"
       id="path216"
       style="fill:#70a184;fill-opacity:1;fill-rule:evenodd;stroke:none"
       d="m 663.382,217.185 c 0,-11.52 0,-23.04 0,-34.56 -0.144,0 -0.216,0 -0.288,0 0,11.52 0,23.04 0,34.56 0.072,0 0.144,0 0.288,0" /><path
       inkscape:connector-curvature="0"
       id="path218"
       style="fill:#437468;fill-opacity:1;fill-rule:evenodd;stroke:none"
       d="m 522.478,217.329 c 0,-11.232 0,-22.536 0,-33.84 -0.216,0 -0.216,33.84 0,33.84" /><path
       inkscape:connector-curvature="0"
       id="path220"
       style="fill:#437468;fill-opacity:1;fill-rule:evenodd;stroke:none"
       d="m 496.054,216.825 c 0,-11.088 0,-22.176 0,-33.264 -0.216,0 -0.216,33.264 0,33.264" /><path
       inkscape:connector-curvature="0"
       id="path222"
       style="fill:#437468;fill-opacity:1;fill-rule:evenodd;stroke:none"
       d="m 579.214,215.745 c 0,-10.44 0.072,-20.88 0.144,-31.32 -0.216,0 -0.216,0 -0.144,31.32" /><path
       inkscape:connector-curvature="0"
       id="path224"
       style="fill:#437468;fill-opacity:1;fill-rule:evenodd;stroke:none"
       d="m 500.878,198.609 c 0,-4.176 0,-8.352 0,-12.528 -0.216,0 -0.216,12.528 0,12.528" /><path
       inkscape:connector-curvature="0"
       id="path226"
       style="fill:#437468;fill-opacity:1;fill-rule:evenodd;stroke:none"
       d="m 457.462,190.185 c 0,7.128 0,14.256 0,21.384 0.216,0 0.216,-21.384 0,-21.384" /><path
       inkscape:connector-curvature="0"
       id="path228"
       style="fill:#437468;fill-opacity:1;fill-rule:evenodd;stroke:none"
       d="m 462.502,198.825 c 0,0.216 0,0.216 15.84,0.144 -5.328,0 -10.584,-0.072 -15.84,-0.144" /><path
       inkscape:connector-curvature="0"
       id="path230"
       style="fill:#437468;fill-opacity:1;fill-rule:evenodd;stroke:none"
       d="m 500.878,213.945 c 0,-3.816 0,-7.632 0,-11.52 -0.216,0 -0.216,11.52 0,11.52" /></g></svg>